<svg width="512" height="512" viewBox="0 0 512 512" fill="none" xmlns="http://www.w3.org/2000/svg">
    <path d="M241.276 7.823C242.12 7.81643 242.964 7.80986 243.834 7.80309C246.632 7.78336 249.429 7.77169 252.227 7.76172C253.183 7.75764 254.14 7.75357 255.126 7.74937C260.194 7.72851 265.262 7.71421 270.33 7.70483C275.552 7.69379 280.773 7.65941 285.995 7.61966C290.02 7.59345 294.045 7.58514 298.071 7.58155C299.995 7.5767 301.919 7.56511 303.843 7.54651C306.545 7.52203 309.246 7.52311 311.948 7.53003C312.734 7.51722 313.519 7.50441 314.329 7.49121C321.106 7.55408 326.741 9.69428 332.27 13.6055C338.489 19.9826 341.197 25.5442 341.137 34.4934C341.124 35.2613 341.111 36.0292 341.098 36.8203C341.091 37.608 341.084 38.3957 341.076 39.2073C341.058 41.1383 341.03 43.0692 341 45C342.708 44.9764 342.708 44.9764 344.45 44.9524C348.74 44.8974 353.03 44.8634 357.321 44.8352C359.165 44.8203 361.01 44.7999 362.854 44.7737C381.051 44.5216 397.978 45.5567 411.898 58.7148C422.379 70.1112 425.43 83.6483 426.188 98.7256C426.267 100.03 426.346 101.334 426.427 102.678C426.639 106.212 426.832 109.747 427.021 113.282C427.223 117.003 427.443 120.724 427.662 124.444C428.025 130.684 428.377 136.924 428.72 143.165C429.203 151.944 429.707 160.722 430.215 169.499C430.611 176.348 431.001 183.198 431.391 190.047C431.432 190.776 431.474 191.504 431.516 192.255C431.792 197.101 432.062 201.946 432.329 206.792C432.398 208.002 432.466 209.211 432.537 210.457C432.874 216.65 433.071 222.798 433 229C433.906 228.965 434.812 228.93 435.746 228.895C448.133 228.619 455.848 230.419 465 239C478.977 253.706 477.933 274.368 478.535 293.254C478.578 294.557 478.621 295.859 478.665 297.202C478.755 299.938 478.843 302.675 478.93 305.412C479.017 308.167 479.107 310.921 479.2 313.675C479.649 326.96 480.081 340.245 480.133 353.539C480.142 354.846 480.142 354.846 480.152 356.179C480.134 369.838 475.675 380.919 466.363 390.914C460.576 396.022 454.042 399.342 446.25 399.375C444.831 399.281 443.412 399.169 442 399C441.925 399.594 441.85 400.189 441.773 400.801C439.926 412.449 433.855 422.631 424.566 429.906C410.01 439.878 395.585 439.581 378.598 439.518C376.134 439.523 373.671 439.53 371.207 439.539C365.236 439.555 359.265 439.553 353.294 439.541C348.437 439.532 343.58 439.531 338.723 439.535C338.029 439.536 337.335 439.536 336.62 439.537C335.21 439.538 333.8 439.54 332.39 439.541C319.199 439.552 306.008 439.539 292.816 439.518C281.522 439.5 270.227 439.503 258.933 439.521C245.785 439.543 232.638 439.551 219.491 439.539C218.086 439.538 216.682 439.536 215.277 439.535C214.586 439.535 213.895 439.534 213.183 439.533C208.338 439.53 203.492 439.536 198.647 439.545C192.113 439.558 185.579 439.549 179.046 439.526C176.655 439.52 174.264 439.522 171.873 439.531C148.836 439.608 148.836 439.608 138 435C137.066 434.627 136.132 434.254 135.17 433.869C134.454 433.582 133.738 433.296 133 433C130.794 434.756 130.058 435.616 129.629 438.453C129.585 440.307 129.543 442.161 129.504 444.016C128.313 451.071 123.712 455.724 118.75 460.5C118.215 461.03 117.68 461.56 117.129 462.105C114.304 464.877 111.41 467.519 108.395 470.082C104.68 473.301 101.224 476.73 97.7773 480.23C96.9466 481.073 96.9466 481.073 96.0991 481.933C93.7933 484.275 91.4904 486.62 89.197 488.974C87.5015 490.712 85.7965 492.441 84.0898 494.168C83.5824 494.694 83.0749 495.22 82.552 495.762C78.4232 499.92 74.012 503.487 68.0859 504.496C67.1913 504.477 66.2967 504.457 65.375 504.438C64.4752 504.436 63.5755 504.435 62.6484 504.434C55.157 503.207 49.9847 496.352 44.875 491.25C43.9688 490.368 43.0626 489.487 42.1289 488.578C36.1911 482.667 32.5757 478.534 31.5 470.062C32.0444 459.894 41.9976 452.447 49 446C50.1866 444.982 51.3756 443.966 52.5664 442.953C59.3744 437.046 65.5694 430.455 71.8784 424.026C73.5837 422.29 75.2954 420.561 77.0078 418.832C77.5205 418.306 78.0331 417.78 78.5613 417.238C83.0738 412.694 87.4559 408.616 94.125 408.312C99.7717 408.005 102.749 407.669 106.75 403.438C107.364 402.797 107.977 402.156 108.609 401.496C109.068 401.002 109.527 400.509 110 400C109.31 399.925 108.621 399.85 107.91 399.773C100.591 398.749 95.708 396.668 90 392C89.0583 391.244 89.0583 391.244 88.0977 390.473C80.1642 383.373 75.4604 372.505 74.8132 361.955C74.7253 358.052 74.7215 354.154 74.75 350.25C74.7528 349.51 74.7555 348.769 74.7584 348.007C74.8269 331.879 75.2728 315.755 75.754 299.636C75.8121 297.64 75.8651 295.644 75.9181 293.649C76.0218 289.841 76.1433 286.034 76.2695 282.227C76.2978 281.101 76.3261 279.974 76.3552 278.814C76.888 264.287 79.5711 249.564 89.75 238.562C98.5708 230.42 107.288 228.864 118.862 228.971C120.415 228.985 120.415 228.985 122 229C121.983 228.165 121.966 227.33 121.949 226.469C121.802 212.757 122.663 199.11 123.461 185.426C123.575 183.441 123.688 181.455 123.802 179.47C124.157 173.25 124.518 167.03 124.881 160.81C125.253 154.434 125.618 148.057 125.978 141.68C126.29 136.161 126.608 130.643 126.929 125.125C127.119 121.848 127.307 118.571 127.492 115.294C127.699 111.639 127.914 107.984 128.13 104.329C128.189 103.27 128.247 102.21 128.307 101.119C129.403 83.1115 132.231 69.0701 145.688 56.3125C160.079 44.366 176.009 44.7097 193.688 44.875C195.564 44.8851 197.441 44.8942 199.318 44.9023C203.879 44.9242 208.439 44.9586 213 45C212.987 44.1232 212.974 43.2464 212.96 42.343C212.95 41.1844 212.94 40.0258 212.93 38.832C212.917 37.6871 212.904 36.5422 212.89 35.3625C213.164 26.9931 216.077 19.9499 222 14C228.303 9.20135 233.387 7.84958 241.276 7.823ZM232.125 29C228.941 34.6604 230 37.3965 230 45C261.02 45 292.04 45 324 45C325.458 31.7548 325.458 31.7548 320 26C315.565 23.9451 311.575 23.743 306.729 23.7253C305.676 23.7177 305.676 23.7177 304.603 23.7099C302.299 23.696 299.995 23.6969 297.691 23.6992C296.08 23.6953 294.469 23.691 292.857 23.6862C289.486 23.6788 286.114 23.6791 282.743 23.6843C278.434 23.6901 274.126 23.6732 269.818 23.65C266.492 23.6352 263.166 23.6344 259.84 23.6375C258.252 23.637 256.664 23.6318 255.076 23.6217C252.851 23.6093 250.626 23.6161 248.401 23.6277C247.137 23.6271 245.874 23.6264 244.573 23.6258C239.714 24.1347 235.562 25.3336 232.125 29Z" fill="#020101"/>
    <path d="M177.442 61.8461C178.314 61.8417 179.186 61.8373 180.085 61.8328C183.019 61.8194 185.952 61.8133 188.886 61.8071C190.986 61.7992 193.085 61.791 195.184 61.7823C202.09 61.7561 208.996 61.7408 215.902 61.7266C218.28 61.7212 220.658 61.7158 223.036 61.7104C232.932 61.6888 242.827 61.6701 252.722 61.6588C266.896 61.6426 281.07 61.6094 295.245 61.5524C305.213 61.5137 315.182 61.4942 325.151 61.4889C331.103 61.4852 337.054 61.4733 343.006 61.4408C348.611 61.4106 354.216 61.4044 359.821 61.4162C361.872 61.4164 363.923 61.4081 365.974 61.3905C378.597 61.288 389.905 61.4193 399.937 70.1875C405.888 76.8216 408.936 84.7003 409.373 93.4961C409.43 94.5982 409.486 95.7004 409.545 96.8359C409.602 98.0245 409.66 99.213 409.719 100.438C409.781 101.669 409.844 102.9 409.909 104.168C410.076 107.445 410.239 110.721 410.401 113.998C410.627 118.581 410.858 123.164 411.091 127.746C411.214 130.182 411.336 132.617 411.455 135.052C411.781 141.533 412.211 147.992 412.78 154.456C413.817 166.439 413.587 176.676 406.016 186.602C399.95 193.204 393.615 196.817 384.544 197.379C378.861 197.588 373.178 197.564 367.493 197.549C365.304 197.558 363.115 197.568 360.926 197.58C355 197.607 349.075 197.608 343.149 197.603C338.194 197.601 333.239 197.611 328.284 197.62C315.922 197.644 303.56 197.642 291.198 197.629C281.152 197.62 271.105 197.637 261.059 197.672C249.368 197.714 237.677 197.735 225.986 197.727C219.806 197.724 213.627 197.729 207.447 197.757C201.634 197.782 195.821 197.778 190.008 197.752C187.881 197.747 185.755 197.752 183.628 197.769C171.071 197.86 160.621 197.874 150.788 189.005C144.564 182.679 141.522 175.179 141.559 166.352C141.586 165.41 141.613 164.467 141.641 163.496C141.656 162.472 141.671 161.448 141.686 160.392C141.945 147.362 142.682 134.346 143.489 121.34C143.712 117.737 143.912 114.134 144.107 110.529C144.263 107.705 144.435 104.882 144.612 102.059C144.731 100.094 144.834 98.1279 144.937 96.1619C145.412 88.9994 146.465 83.2857 150 77C150.446 76.2021 150.892 75.4041 151.351 74.582C157.904 65.4766 166.491 61.8527 177.442 61.8461Z" fill="#EAB877"/>
    <path d="M207.28 92.7393C208.546 92.7322 209.812 92.7251 211.116 92.7178C212.511 92.7201 213.907 92.7226 215.302 92.7253C216.778 92.721 218.253 92.7158 219.728 92.7099C223.731 92.6965 227.733 92.6959 231.735 92.6984C235.08 92.6995 238.424 92.6946 241.769 92.6898C249.663 92.6787 257.558 92.6783 265.452 92.6843C273.586 92.6904 281.719 92.6781 289.853 92.6568C296.844 92.6391 303.835 92.6331 310.827 92.6364C314.999 92.6382 319.171 92.6356 323.342 92.6217C327.268 92.6091 331.194 92.6111 335.12 92.6241C336.557 92.6264 337.993 92.6237 339.43 92.6155C355.903 92.5274 355.903 92.5274 362.461 98.0859C363.093 98.8413 363.724 99.5967 364.375 100.375C365.022 101.125 365.669 101.875 366.336 102.648C369.919 107.711 370.329 112.37 370.371 118.449C370.38 119.262 370.389 120.075 370.399 120.912C370.413 122.629 370.422 124.346 370.426 126.063C370.437 128.662 370.487 131.259 370.537 133.857C370.635 143.845 370.39 152.213 363.215 159.917C358.089 164.829 352.649 166.244 345.607 166.274C344.341 166.284 343.075 166.294 341.771 166.304C340.381 166.305 338.991 166.306 337.6 166.306C336.126 166.314 334.653 166.322 333.179 166.332C329.185 166.354 325.191 166.362 321.197 166.367C318.698 166.371 316.2 166.377 313.702 166.384C304.977 166.409 296.252 166.422 287.528 166.426C279.409 166.429 271.291 166.459 263.173 166.501C256.191 166.536 249.209 166.551 242.227 166.552C238.062 166.553 233.898 166.561 229.733 166.59C225.813 166.616 221.894 166.618 217.975 166.602C216.542 166.6 215.109 166.607 213.676 166.623C205.305 166.711 198.752 166.313 192 161C189.844 158.613 189.844 158.613 188.5 156.312C187.804 155.162 187.804 155.162 187.094 153.988C184.723 149.679 184.803 145.965 184.762 141.117C184.754 140.229 184.746 139.341 184.737 138.426C184.723 136.541 184.713 134.656 184.705 132.771C184.688 129.907 184.644 127.044 184.6 124.18C184.59 122.346 184.581 120.513 184.574 118.68C184.557 117.83 184.539 116.981 184.521 116.106C184.546 109.349 186.297 104.132 190.746 98.9766C191.304 98.5305 191.862 98.0845 192.438 97.625C192.993 97.1635 193.549 96.702 194.121 96.2266C198.435 93.4108 202.172 92.7488 207.28 92.7393Z" fill="#020201"/>
    <path d="M414 200C414.33 200 414.66 200 415 200C416.898 225.358 418.46 250.72 419.753 276.117C420.478 290.336 421.243 304.54 422.299 318.74C423.181 330.882 423.736 343.043 424.303 355.203C424.67 362.981 425.1 370.732 425.788 378.49C426.87 391.314 426.792 402.58 418.25 412.938C412.01 419.421 403.847 423.01 394.809 423.227C393.28 423.227 391.751 423.216 390.223 423.195C389.411 423.192 388.6 423.19 387.764 423.187C385.197 423.176 382.63 423.151 380.063 423.125C378.312 423.115 376.561 423.106 374.811 423.098C370.54 423.076 366.27 423.041 362 423C361.884 415.411 361.795 407.822 361.741 400.233C361.715 396.708 361.68 393.184 361.623 389.66C361.558 385.604 361.534 381.549 361.512 377.492C361.486 376.233 361.46 374.973 361.434 373.675C361.43 363.911 361.43 363.911 364.468 360.344C365.304 359.571 366.139 358.797 367 358C368.07 354.791 368.146 352.438 368.177 349.063C368.19 347.842 368.203 346.62 368.216 345.361C368.224 344.026 368.232 342.691 368.238 341.355C368.242 340.682 368.246 340.008 368.251 339.314C368.271 335.747 368.286 332.181 368.295 328.614C368.306 324.939 368.341 321.264 368.38 317.589C368.407 314.755 368.415 311.922 368.418 309.088C368.426 307.077 368.452 305.066 368.479 303.056C368.461 295.676 368.32 291.319 363 286C362.906 283.73 362.883 281.457 362.886 279.185C362.886 278.473 362.886 277.761 362.886 277.027C362.887 274.663 362.895 272.298 362.902 269.934C362.904 268.298 362.906 266.663 362.907 265.028C362.91 260.716 362.92 256.403 362.931 252.091C362.942 247.694 362.946 243.297 362.951 238.9C362.962 230.267 362.979 221.633 363 213C364.111 212.97 364.111 212.97 365.244 212.94C368.642 212.844 372.04 212.735 375.438 212.625C376.602 212.594 377.767 212.563 378.967 212.531C388.54 212.208 396.421 211.276 404.875 206.562C406.511 205.667 406.511 205.667 408.18 204.754C410.516 203.301 412.157 201.996 414 200Z" fill="#F0CFA3"/>
    <path d="M225.91 296.508C239.353 304.459 248.325 316.135 253 331C256.142 346.519 253.438 361.887 244.977 375.281C236.066 387.537 223.71 394.737 209 398C191.181 399.649 177.06 395.789 163.008 384.383C152.875 374.971 146.724 361.726 145.797 347.992C145.554 331.823 150.435 317.953 161.715 306.184C179.086 289.585 204.3 285.311 225.91 296.508Z" fill="#EAEDEF"/>
    <path d="M247 213C267.13 213 287.26 213 308 213C308.201 230.728 308.201 230.728 308.244 238.301C308.274 243.463 308.309 248.624 308.377 253.786C308.432 257.948 308.461 262.111 308.474 266.274C308.484 267.86 308.502 269.446 308.529 271.032C308.565 273.258 308.57 275.483 308.568 277.709C308.584 279.608 308.584 279.608 308.601 281.545C307.809 286.097 306.145 287.678 303 291C301.652 293.695 301.858 295.805 301.839 298.823C301.829 300.045 301.82 301.267 301.81 302.526C301.805 303.866 301.801 305.206 301.797 306.547C301.791 307.92 301.785 309.293 301.78 310.665C301.769 313.547 301.763 316.429 301.76 319.311C301.754 322.994 301.73 326.676 301.702 330.359C301.683 333.197 301.678 336.035 301.676 338.873C301.672 340.888 301.653 342.904 301.634 344.919C301.637 346.153 301.64 347.387 301.644 348.659C301.64 349.741 301.636 350.823 301.633 351.938C302.139 356.16 303.475 359.614 306.666 362.515C308.715 364.796 308.36 366.744 308.341 369.757C308.34 371.528 308.34 371.528 308.34 373.335C308.324 374.61 308.309 375.886 308.293 377.199C308.289 378.505 308.285 379.81 308.28 381.155C308.269 384.622 308.239 388.089 308.206 391.556C308.175 395.095 308.161 398.635 308.147 402.174C308.116 409.116 308.057 416.058 308 423C289.85 423 271.7 423 253 423C256.234 419.766 259.385 416.74 262.813 413.75C279.368 398.787 291.558 377.67 293 355C293.967 335.05 292.411 318.935 283 301C282.487 299.993 281.974 298.986 281.445 297.949C275.509 287 265.138 273.591 253.822 267.906C247.478 264.485 247.478 264.485 246.205 260.53C245.958 257.477 245.987 254.537 246.121 251.477C246.13 250.5 246.139 249.523 246.149 248.516C246.195 244.885 246.321 241.255 246.438 237.625C246.716 225.436 246.716 225.436 247 213Z" fill="#ECCCA1"/>
    <path d="M209.877 108.612C211.717 108.597 211.717 108.597 213.594 108.582C214.956 108.587 216.318 108.591 217.68 108.596C219.112 108.59 220.544 108.583 221.977 108.575C225.869 108.557 229.762 108.558 233.654 108.564C236.902 108.567 240.15 108.561 243.398 108.555C251.061 108.541 258.723 108.543 266.385 108.554C274.292 108.565 282.2 108.551 290.107 108.525C296.894 108.502 303.68 108.496 310.467 108.502C314.521 108.505 318.576 108.503 322.63 108.485C326.443 108.47 330.255 108.474 334.068 108.493C335.468 108.496 336.867 108.493 338.267 108.483C340.177 108.47 342.087 108.484 343.997 108.499C345.6 108.499 345.6 108.499 347.236 108.499C350.707 109.128 351.888 110.219 354 113C354.399 115.633 354.562 117.84 354.531 120.469C354.535 121.186 354.539 121.903 354.543 122.642C354.546 124.155 354.538 125.668 354.522 127.181C354.5 129.493 354.521 131.802 354.547 134.113C354.544 135.586 354.539 137.059 354.531 138.531C354.539 139.22 354.548 139.909 354.556 140.618C354.494 143.772 354.272 145.642 352.343 148.182C349.361 150.496 347.746 150.5 343.997 150.501C342.767 150.511 341.537 150.521 340.27 150.531C338.911 150.522 337.551 150.512 336.191 150.502C334.757 150.505 333.323 150.511 331.889 150.518C327.996 150.532 324.104 150.521 320.212 150.504C316.14 150.491 312.068 150.497 307.996 150.501C301.159 150.503 294.322 150.49 287.485 150.467C279.577 150.44 271.669 150.438 263.76 150.45C256.156 150.461 248.552 150.455 240.948 150.44C237.71 150.435 234.472 150.435 231.234 150.439C227.423 150.444 223.612 150.434 219.801 150.412C218.401 150.407 217.001 150.406 215.601 150.411C213.693 150.417 211.785 150.403 209.877 150.388C208.808 150.385 207.739 150.383 206.638 150.38C204 150 204 150 202.157 148.695C200.19 145.814 200.574 142.524 200.602 139.156C200.599 138.391 200.596 137.625 200.593 136.837C200.591 135.219 200.596 133.602 200.609 131.985C200.625 129.509 200.609 127.035 200.59 124.559C200.592 122.987 200.596 121.415 200.602 119.844C200.596 119.103 200.59 118.362 200.583 117.599C200.653 112.509 200.653 112.509 202.157 110.305C204.774 108.452 206.685 108.62 209.877 108.612Z" fill="#C38857"/>
    <path d="M228 280C228.938 280.384 229.877 280.768 230.844 281.164C247.463 288.704 259.628 303.68 266.352 320.352C272.865 339.237 271.217 358.248 262.812 376.25C253.385 394.077 238.419 405.657 219.598 412.309C200.993 417.261 180.596 414.539 164.059 404.965C146.918 393.954 135.504 378.025 131 358C127.709 338.09 131.558 319.957 142.879 303.223C163.046 276.781 197.131 266.946 228 280ZM164 304C163.343 304.544 162.685 305.088 162.008 305.648C152.144 314.636 146.685 327.857 145.797 341.008C145.556 357.052 150.402 370.916 161.404 382.761C170.512 391.905 183.257 398.285 196.243 398.468C197.07 398.458 197.898 398.448 198.75 398.438C199.622 398.431 200.494 398.424 201.392 398.417C217.359 398.023 230.056 391.379 241 380C251.505 367.409 255.12 353.176 254 337C251.658 320.98 242.372 308.112 229.535 298.535C208.109 285.561 182.817 288.329 164 304Z" fill="#020303"/>
    <path d="M396 68C400.2 71.3252 403.613 74.1493 405.875 79.125C406.264 79.9526 406.654 80.7802 407.055 81.6328C408.646 85.6166 409.16 89.2144 409.373 93.4961C409.43 94.5982 409.487 95.7004 409.545 96.8359C409.602 98.0245 409.66 99.213 409.719 100.438C409.782 101.669 409.844 102.9 409.909 104.168C410.076 107.445 410.239 110.721 410.401 113.998C410.628 118.581 410.858 123.164 411.091 127.746C411.214 130.182 411.336 132.617 411.455 135.052C411.781 141.533 412.211 147.992 412.78 154.456C413.817 166.439 413.587 176.676 406.016 186.602C399.951 193.204 393.615 196.817 384.544 197.379C378.861 197.588 373.178 197.564 367.493 197.549C365.304 197.558 363.115 197.568 360.926 197.58C355 197.607 349.075 197.608 343.149 197.603C338.194 197.601 333.239 197.611 328.284 197.62C315.922 197.644 303.56 197.642 291.198 197.629C281.152 197.62 271.106 197.637 261.059 197.672C249.368 197.714 237.677 197.735 225.986 197.727C219.806 197.724 213.627 197.729 207.447 197.757C201.634 197.782 195.821 197.778 190.008 197.752C187.882 197.747 185.755 197.753 183.628 197.769C161.688 197.928 161.688 197.928 153 191C151.229 189.063 149.623 187.068 148 185C149.14 184.999 150.28 184.997 151.455 184.996C179.206 184.959 206.957 184.899 234.709 184.816C237.381 184.808 240.054 184.8 242.727 184.792C243.723 184.79 243.723 184.79 244.74 184.787C254.816 184.758 264.893 184.74 274.97 184.729C286.668 184.716 298.366 184.689 310.065 184.645C316.258 184.623 322.451 184.607 328.644 184.608C334.477 184.609 340.309 184.591 346.141 184.559C348.279 184.55 350.416 184.549 352.553 184.554C355.48 184.561 358.405 184.543 361.332 184.519C362.17 184.527 363.009 184.535 363.873 184.542C374.075 184.396 382.739 180.038 390 173C392.4 170.172 394.259 167.271 396 164C396.621 162.836 396.621 162.836 397.254 161.648C403.051 148.601 399.972 132.237 398.857 118.438C397.991 107.573 397.417 96.6985 396.875 85.8125C396.809 84.4825 396.809 84.4825 396.741 83.1256C396.49 78.0839 396.243 73.0421 396 68Z" fill="#C38857"/>
    <path d="M247 281C262.329 292.908 275.465 311.347 278 331C279.001 345.578 279.042 360.519 272.813 374C272.505 374.68 272.198 375.36 271.881 376.061C262.153 397.046 246.66 410.223 225.535 419.027C206.74 425.859 185.656 424.599 167.624 416.264C160.357 412.688 153.98 408.502 148 403C147.16 402.251 146.319 401.502 145.453 400.73C131.869 387.99 122.759 369.629 121.904 350.904C121.867 348.789 121.861 346.678 121.875 344.563C121.88 343.815 121.885 343.067 121.89 342.296C122.11 322.079 129.911 303.626 144 289C172.442 261.541 214.374 258.337 247 281ZM146.813 298.188C138.526 307.988 133.812 318.56 131 331C130.71 332.218 130.71 332.218 130.414 333.461C127.496 351.358 132.314 368.856 141.938 383.938C142.933 385.311 143.954 386.665 145 388C145.839 389.1 145.839 389.1 146.695 390.223C154.562 399.817 165.41 406.735 177 411C177.862 411.318 178.725 411.637 179.613 411.965C186.275 414.009 192.774 414.276 199.688 414.313C201.006 414.321 201.006 414.321 202.351 414.329C220.695 414.128 237.318 405.995 250.582 393.574C258.118 385.552 263.465 376.424 267 366C267.319 365.093 267.637 364.185 267.965 363.25C273.04 346.41 270.673 327.644 262.75 312.125C251.211 292.281 235.681 281.739 214.119 275.451C188.523 269.998 164.368 279.814 146.813 298.188Z" fill="#85C2F5"/>
    <path d="M434 246C444.89 245.475 444.89 245.475 449.438 247.625C456.538 254.206 460.521 261.102 461.196 270.822C461.246 272.371 461.246 272.371 461.297 273.951C461.357 275.722 461.357 275.722 461.418 277.529C461.476 279.444 461.476 279.444 461.535 281.398C461.578 282.752 461.622 284.105 461.665 285.459C461.756 288.312 461.844 291.165 461.93 294.018C462.016 296.876 462.106 299.734 462.2 302.592C462.501 311.686 462.756 320.78 462.953 329.877C463.001 332.026 463.052 334.175 463.104 336.324C463.186 339.852 463.243 343.379 463.282 346.907C463.308 348.845 463.353 350.783 463.399 352.721C463.46 361.747 461.964 369.197 457.188 376.938C451.893 381.93 448.324 383.095 441 383C440.967 382.388 440.934 381.776 440.9 381.145C439.133 347.372 439.133 347.372 436.938 313.625C436.099 302.111 435.464 290.591 434.875 279.062C434.83 278.212 434.786 277.362 434.74 276.485C434.21 266.311 433.869 256.191 434 246Z" fill="#C28757"/>
    <path d="M140 201C143.889 202.86 147.447 205.144 151.074 207.465C159.914 212.103 168.167 212.515 178.062 212.688C182.662 212.791 187.261 212.894 192 213C192 225.54 192 238.08 192 251C188.04 251.66 184.08 252.32 180 253C164.359 256.06 151.718 263.698 139 273C137.515 273.99 137.515 273.99 136 275C135.82 260.773 136.208 246.69 137.227 232.499C137.441 229.512 137.644 226.525 137.846 223.537C137.978 221.609 138.112 219.682 138.246 217.754C138.306 216.875 138.367 215.996 138.429 215.09C138.772 210.353 139.265 205.692 140 201Z" fill="#EFCEA3"/>
    <path d="M114.812 245.813C116.555 245.853 116.555 245.853 118.332 245.895C119.212 245.929 120.093 245.964 121 246C120.939 247.48 120.878 248.961 120.816 250.441C120.776 251.407 120.737 252.372 120.695 253.367C120.606 255.517 120.515 257.667 120.424 259.816C120.188 265.355 119.966 270.893 119.781 276.434C119.744 277.453 119.708 278.473 119.67 279.523C119.6 281.46 119.537 283.397 119.481 285.334C119.198 292.829 118.077 299.302 114.625 306.062C104.628 327.298 104.353 351.926 111.366 373.996C112.309 376.979 113.151 379.989 114 383C108.887 383.548 105.983 383.43 101.75 380.375C94.9987 374.694 91.7228 367.444 90.7439 358.717C90.6705 356.407 90.6914 354.119 90.7538 351.809C90.7657 350.925 90.7776 350.042 90.7899 349.132C90.8392 346.087 90.917 343.044 90.9999 340C91.029 338.844 91.0581 337.688 91.088 336.497C91.3064 328.029 91.5793 319.563 91.8688 311.097C91.9607 308.372 92.0481 305.647 92.1355 302.922C92.2425 299.605 92.3538 296.289 92.4648 292.973C92.5034 291.776 92.5419 290.58 92.5817 289.348C92.7885 283.384 93.0586 277.427 93.424 271.47C93.5255 269.806 93.5255 269.806 93.6291 268.108C94.5328 260.533 97.6454 254.355 103 249C107.031 246.026 109.848 245.662 114.812 245.813Z" fill="#DFA46D"/>
    <path d="M414 200C414.33 200 414.66 200 415 200C416.898 225.358 418.46 250.72 419.753 276.117C420.478 290.336 421.243 304.54 422.299 318.74C423.181 330.882 423.736 343.043 424.303 355.203C424.67 362.981 425.1 370.732 425.788 378.49C426.87 391.314 426.792 402.58 418.25 412.938C412.989 418.404 407.595 421.241 400 422C400.887 421.031 401.774 420.061 402.688 419.062C415.969 403.521 413.041 385.737 412.125 366.688C412.057 365.256 412.057 365.256 411.988 363.795C411.288 349.035 410.431 334.293 409.435 319.55C408.191 301.04 407.104 282.519 406 264C405.945 263.072 405.889 262.145 405.832 261.189C405.528 256.084 405.231 250.979 404.943 245.873C404.858 244.371 404.772 242.87 404.683 241.368C404.049 230.567 403.908 219.817 404 209C403.34 208.67 402.68 208.34 402 208C402.699 207.59 403.397 207.18 404.117 206.758C405.027 206.219 405.937 205.68 406.875 205.125C407.78 204.591 408.685 204.058 409.617 203.508C412.066 202.08 412.066 202.08 414 200Z" fill="#E8B776"/>
    <path d="M317 298C328.88 298 340.76 298 353 298C353 315.49 353 332.98 353 351C341.12 351 329.24 351 317 351C317 333.51 317 316.02 317 298Z" fill="#E2A66E"/>
    <path d="M95 425C101.033 429.984 106.518 435.419 112 441C110.398 444.981 107.618 447.655 104.617 450.613C103.818 451.412 103.818 451.412 103.002 452.227C101.873 453.353 100.741 454.477 99.6074 455.598C97.8966 457.291 96.1938 458.991 94.4922 460.693C89.3658 465.803 84.2139 470.81 78.7075 475.513C76.0107 477.862 73.5045 480.387 71 482.938C70.5114 483.431 70.0229 483.924 69.5195 484.432C68.344 485.619 67.1716 486.809 66 488C52.0199 476.35 52.0199 476.35 49 470C52.553 466.422 56.1094 462.848 59.6689 459.276C60.8763 458.064 62.0827 456.851 63.2881 455.636C75.0226 443.819 75.0226 443.819 81.2832 438.492C84.1623 435.99 86.8264 433.28 89.5 430.562C90.0362 430.022 90.5725 429.481 91.125 428.924C92.419 427.618 93.7099 426.309 95 425Z" fill="#EEB782"/>
    <path d="M324 213C331.26 213 338.52 213 346 213C346 235.77 346 258.54 346 282C338.74 282 331.48 282 324 282C324 259.23 324 236.46 324 213Z" fill="#EBB977"/>
    <path d="M434 246C434.892 245.981 435.783 245.962 436.702 245.942C438.242 245.909 438.242 245.909 439.812 245.875C445.625 245.75 445.625 245.75 449 248C449.437 249.816 449.437 249.816 449.524 252.055C449.564 252.903 449.604 253.751 449.645 254.624C449.687 256.021 449.687 256.021 449.73 257.445C449.771 258.423 449.811 259.4 449.853 260.407C449.981 263.646 450.086 266.885 450.187 270.125C450.226 271.23 450.264 272.336 450.303 273.475C450.585 281.649 450.807 289.823 451 298C451.027 299.143 451.055 300.286 451.083 301.463C451.236 308.063 451.348 314.662 451.406 321.264C451.427 323.32 451.455 325.375 451.492 327.431C451.903 352.194 451.903 352.194 443.187 361.25C442.105 362.116 442.105 362.116 441 363C439.755 360.51 439.733 358.592 439.551 355.808C439.477 354.715 439.404 353.621 439.328 352.495C439.214 350.699 439.214 350.699 439.098 348.867C439.016 347.623 438.933 346.379 438.849 345.098C438.628 341.723 438.411 338.348 438.196 334.972C438.063 332.88 437.928 330.787 437.793 328.695C436.682 311.489 435.622 294.282 434.75 277.063C434.709 276.273 434.668 275.484 434.626 274.672C434.137 265.107 433.897 255.579 434 246Z" fill="#E0A56D"/>
    <path d="M323 367C330.92 367 338.84 367 347 367C347 385.48 347 403.96 347 423C339.08 423 331.16 423 323 423C323 404.52 323 386.04 323 367Z" fill="#EBB977"/>
    <path d="M208 213C215.59 213 223.18 213 231 213C231 226.86 231 240.72 231 255C227.37 254.34 223.74 253.68 220 253C216.04 252.34 212.08 251.68 208 251C208 238.46 208 225.92 208 213Z" fill="#EBB877"/>
    <path d="M317 298C328.88 298 340.76 298 353 298C353 315.49 353 332.98 353 351C341.12 351 329.24 351 317 351C317 350.67 317 350.34 317 350C326.57 350 336.14 350 346 350C346 333.17 346 316.34 346 299C336.43 299 326.86 299 317 299C317 298.67 317 298.34 317 298Z" fill="#BE8556"/>
    <path d="M323 367C323.33 367 323.66 367 324 367C324 385.15 324 403.3 324 422C329.94 422 335.88 422 342 422C342 403.85 342 385.7 342 367C343.65 367 345.3 367 347 367C347 385.48 347 403.96 347 423C339.08 423 331.16 423 323 423C323 404.52 323 386.04 323 367Z" fill="#BB8B5C"/>
    <path d="M324 213C331.26 213 338.52 213 346 213C346 235.77 346 258.54 346 282C344.68 282 343.36 282 342 282C342 259.56 342 237.12 342 214C336.06 214 330.12 214 324 214C324 213.67 324 213.34 324 213Z" fill="#E1A66E"/>
    <path d="M208 213C215.59 213 223.18 213 231 213C231 226.86 231 240.72 231 255C227.535 254.505 227.535 254.505 224 254C225.485 253.505 225.485 253.505 227 253C227 240.13 227 227.26 227 214C221.06 214 215.12 214 209 214C209 225.88 209 237.76 209 250C209.99 250.33 210.98 250.66 212 251C210.68 251 209.36 251 208 251C208 238.46 208 225.92 208 213Z" fill="#DBA46C"/>
    <path d="M109 370C110.904 372.856 111.695 374.931 112.625 378.188C113.016 379.539 113.016 379.539 113.414 380.918C113.607 381.605 113.801 382.292 114 383C107.649 383.68 104.726 382.691 99.7617 378.703C97.9152 376.918 96.4156 375.143 95 373C95 372.34 95 371.68 95 371C99.62 370.67 104.24 370.34 109 370Z" fill="#BB8254"/>
    <path d="M128 406C129.32 406.99 130.64 407.98 132 409C130.39 413.074 127.462 415.765 124.375 418.75C123.859 419.257 123.344 419.763 122.812 420.285C121.546 421.528 120.274 422.765 119 424C117.062 423.188 117.062 423.188 115 422C114.67 421.01 114.34 420.02 114 419C114.508 418.564 115.016 418.129 115.539 417.68C119.868 413.935 124.003 410.097 128 406Z" fill="#A094A0"/>
</svg>
